<?xml version="1.0" encoding="utf-8"?>
<!-- Generator: Adobe Illustrator 24.2.3, SVG Export Plug-In . SVG Version: 6.00 Build 0)  -->
<svg version="1.1" id="Capa_1" xmlns="http://www.w3.org/2000/svg" xmlns:xlink="http://www.w3.org/1999/xlink" x="0px" y="0px"
	 viewBox="0 0 303.69 274.26" style="enable-background:new 0 0 303.69 274.26;" xml:space="preserve">
<style type="text/css">
	.st0{fill:#00D6A1;}
	.st1{fill:none;stroke:#78D4A1;stroke-width:5.5174;stroke-linecap:round;stroke-linejoin:round;stroke-miterlimit:10;}
</style>
<path class="st0" d="M290.33,189.16c0.3-1.98,0.46-4,0.46-6.05c0-17.92-11.41-33.33-28.46-38.54c-2.52-23.5-21.88-41.2-45.5-41.69
	v-0.02h-1c-0.89,0-1.78,0.03-2.66,0.08c-0.1,0.01-0.2,0.02-0.29,0.02c-0.79,0.05-1.58,0.12-2.36,0.21
	c-0.07,0.01-0.14,0.01-0.21,0.02c-8.78-12.17-22.91-19.42-37.93-19.42c-12.31,0-24.34,4.99-33.08,13.7
	c-7.92,0.06-15.72,2.15-22.62,6.04c-6.77-3.58-14.34-5.52-21.98-5.67V97.8h-1c-27.2,0-49.32,22.12-49.32,49.31
	c0,1.75,0.09,3.47,0.27,5.18c-17.66,2.17-31.35,17.53-31.35,35.42c0,19.68,16.01,35.7,35.69,35.7h201.5
	c20.02,0,36.66-14.67,39.77-33.82l0.25-0.25L290.33,189.16z M258.93,215.68c-0.05,0.01-0.1,0.03-0.15,0.04
	c-0.18,0.05-0.37,0.08-0.56,0.13c-2.47,0.54-4.98,0.84-7.51,0.9c-0.02,0-0.04,0-0.06,0c-3.9,0.09-7.84-0.4-11.7-1.48
	c-10.33-2.87-18.92-9.59-24.19-18.93c-5.48-9.7-6.62-21.1-3.4-31.55c3.18-0.4,5.64-3.11,5.64-6.39c0-3.55-2.89-6.44-6.44-6.44
	c-3.55,0-6.43,2.89-6.43,6.44c0,1.35,0.42,2.61,1.14,3.65c-1.68,5.14-2.47,10.48-2.33,15.8c-11.24,1.29-20.42,9.43-23.25,20.12
	c-2.35,0.96-4.02,3.27-4.02,5.97c0,3.55,2.89,6.44,6.43,6.44c3.56,0,6.46-2.89,6.46-6.44c0-1.96-0.88-3.71-2.26-4.89
	c2.32-7.75,9.07-13.59,17.31-14.58c0.89,5.24,2.67,10.37,5.36,15.14c4.06,7.18,9.8,13.02,16.7,17.13H48.97
	c-16.01,0-29.03-13.03-29.03-29.05c0-14.84,11.37-27.25,25.85-28.84c2.49,10.15,8.14,19.08,15.85,25.68
	c-3.69,3.89-8.38,6.66-13.44,7.97c-1.18-1.41-2.96-2.31-4.94-2.31c-3.55,0-6.44,2.89-6.44,6.45c0,3.55,2.89,6.44,6.44,6.44
	c2.68,0,4.98-1.64,5.95-3.97c6.76-1.61,13.01-5.32,17.78-10.59c7.7,4.98,16.86,7.88,26.7,7.88c13.16,0,25.67-5.26,34.9-14.52
	c0.3,0.04,0.6,0.07,0.91,0.07c3.56,0,6.45-2.89,6.45-6.44c0-3.55-2.9-6.44-6.45-6.44c-3.55,0-6.43,2.89-6.43,6.44
	c0,0.75,0.13,1.46,0.37,2.13c-7.94,7.73-18.58,12.11-29.74,12.11c-20.57,0-37.79-14.63-41.79-34.03l-0.17-0.97
	c-0.23-1.28-0.4-2.56-0.52-3.82c-0.01-0.07-0.01-0.13-0.02-0.2c-0.05-0.55-0.09-1.11-0.11-1.66c-0.03-0.65-0.05-1.31-0.05-1.96
	c0-6.13,1.31-11.95,3.65-17.22c2.36,4.14,5.79,7.61,10.04,10.07c4.21,2.43,8.88,3.67,13.61,3.67c0.85,0,1.71-0.06,2.57-0.14
	c1.15,1.05,2.67,1.69,4.34,1.69c3.55,0,6.44-2.89,6.44-6.44c0-3.55-2.89-6.44-6.44-6.44c-2.93,0-5.4,1.96-6.18,4.64
	c-3.83,0.13-7.62-0.79-11.01-2.75c-4.46-2.57-7.71-6.64-9.28-11.52c7.72-11.01,20.5-18.22,34.94-18.22c7.5,0,14.89,1.99,21.37,5.76
	l1.74,0.99l1.7-1.05c6.32-3.93,13.59-6.02,21.04-6.04c2.36,9.22,1.17,19.41-3.45,28.52c-2.2,4.34-5.07,8.19-8.42,11.41l-0.97,0.12
	l0.09,0.7c-4.38,3.97-9.52,6.89-15.07,8.46c-1.82,0.51-3.68,0.88-5.56,1.13c-1.17-1.67-3.1-2.76-5.28-2.76
	c-3.55,0-6.44,2.89-6.44,6.45c0,3.55,2.89,6.44,6.44,6.44c2.48,0,4.64-1.41,5.72-3.48c2.35-0.29,4.67-0.73,6.93-1.37
	c6.23-1.76,12-4.95,16.97-9.25c6.66-0.37,13.15,1.65,18.46,5.8c5.84,4.53,9.56,11.08,10.47,18.42c0.91,7.24-1.09,14.45-5.43,20.17
	c-0.61-0.19-1.26-0.3-1.93-0.3c-3.56,0-6.45,2.89-6.45,6.44c0,3.55,2.9,6.44,6.45,6.44c3.54,0,6.42-2.89,6.42-6.44
	c0-0.33-0.03-0.65-0.08-0.97c5.07-6.13,7.9-13.86,7.9-21.9c0-1.47-0.09-2.91-0.26-4.27c-1.15-9.1-5.76-17.22-12.99-22.85
	c-4.84-3.77-10.49-6.12-16.43-6.92c2.06-2.59,3.89-5.42,5.43-8.45c3.5-6.93,5.36-14.55,5.36-22.04c0-4.43-0.64-8.74-1.89-12.86
	c7.38-6.68,16.79-10.34,26.86-10.34c11.93,0,23.06,5.25,30.65,14.24c-17.81,5.08-31.32,20.46-33.62,39.27
	c-2.07,1.08-3.48,3.23-3.48,5.71c0,3.56,2.9,6.45,6.45,6.45c3.55,0,6.44-2.89,6.44-6.45c0-2.19-1.1-4.12-2.77-5.29
	c2.33-17.57,16.06-31.59,33.5-34.34c0.21-0.03,0.42-0.06,0.63-0.09c0.38-0.05,0.76-0.1,1.15-0.15c0.27-0.03,0.54-0.06,0.82-0.08
	c0.37-0.03,0.74-0.06,1.11-0.08c0.24-0.02,0.48-0.03,0.73-0.04c0.61-0.03,1.23-0.05,1.85-0.05c20.05,0,36.82,14.76,39.68,34.21
	c-12.64,0.42-23.91,8.63-27.91,20.01c-2.63,0.81-4.55,3.27-4.55,6.16c0,3.55,2.89,6.44,6.44,6.44s6.44-2.89,6.44-6.44
	c0-1.77-0.72-3.38-1.88-4.54c1.43-3.78,3.95-7.16,7.38-9.83c4.93-3.83,11.03-5.63,17.2-5.07c15.02,3.74,25.48,17.13,25.48,32.65
	c0,1.11-0.06,2.21-0.16,3.29c-4.36,3.83-9.89,5.93-15.75,5.93c-0.02,0-0.05,0-0.07,0c-4.26-0.01-8.35-1.12-11.93-3.2
	c0.01-0.16,0.02-0.31,0.02-0.47c0-3.56-2.89-6.45-6.44-6.45s-6.44,2.9-6.44,6.45c0,3.55,2.89,6.44,6.44,6.44
	c0.9,0,1.75-0.19,2.53-0.52c4.72,2.87,10.14,4.41,15.81,4.41c0.02,0,0.04,0,0.06,0c4.73,0,9.28-1.07,13.4-3.07
	C277.6,205.58,269.21,213.01,258.93,215.68z"/>
</svg>
