<?xml version="1.0" encoding="utf-8"?>
<!-- Generator: Adobe Illustrator 24.2.3, SVG Export Plug-In . SVG Version: 6.00 Build 0)  -->
<svg version="1.1" id="Capa_1" xmlns="http://www.w3.org/2000/svg" xmlns:xlink="http://www.w3.org/1999/xlink" x="0px" y="0px"
	 viewBox="0 0 303.69 274.26" style="enable-background:new 0 0 303.69 274.26;" xml:space="preserve">
<style type="text/css">
	.st0{fill:#00D6A1;}
	.st1{fill:none;stroke:#78D4A1;stroke-width:5.5174;stroke-linecap:round;stroke-linejoin:round;stroke-miterlimit:10;}
</style>
<g>
	<g>
		<g>
			<path class="st0" d="M266.12,144.85h-62.51c-7.2,0-13.05-5.85-13.05-13.05c0-7.2,5.85-13.05,13.05-13.05h62.51
				c7.2,0,13.05,5.85,13.05,13.05C279.17,138.99,273.32,144.85,266.12,144.85z M203.61,122.38c-5.2,0-9.42,4.23-9.42,9.42
				c0,5.2,4.23,9.42,9.42,9.42h62.51c5.19,0,9.42-4.23,9.42-9.42c0-5.2-4.23-9.42-9.42-9.42H203.61z"/>
		</g>
		<path class="st0" d="M215.53,144.85c-1,0-1.81-0.81-1.81-1.81v-21.57c0-1,0.81-1.81,1.81-1.81s1.81,0.81,1.81,1.81v21.57
			C217.34,144.04,216.53,144.85,215.53,144.85z"/>
		<path class="st0" d="M203.39,137.97c-0.46,0-0.93-0.18-1.28-0.53l-4.29-4.29c-0.71-0.71-0.71-1.86,0-2.57
			c0.71-0.71,1.86-0.71,2.57,0l3.01,3.01l6.12-6.12c0.71-0.71,1.86-0.71,2.57,0c0.71,0.71,0.71,1.86,0,2.57l-7.4,7.4
			C204.31,137.8,203.85,137.97,203.39,137.97z"/>
		<g>
			<path class="st0" d="M225.58,132.81l0.18,2.27h-1.46l0.19-2.27l-1.92,1.32l-0.74-1.32l2.1-0.97l-2.1-0.99l0.74-1.32l1.92,1.32
				l-0.19-2.27h1.46l-0.19,2.25l1.94-1.3l0.72,1.32l-2.11,0.99l2.11,0.97l-0.72,1.32L225.58,132.81z"/>
			<path class="st0" d="M233.5,132.81l0.18,2.27h-1.46l0.19-2.27l-1.92,1.32l-0.74-1.32l2.09-0.97l-2.09-0.99l0.74-1.32l1.92,1.32
				l-0.19-2.27h1.46l-0.19,2.25l1.93-1.3l0.72,1.32l-2.11,0.99l2.11,0.97l-0.72,1.32L233.5,132.81z"/>
			<path class="st0" d="M241.42,132.81l0.18,2.27h-1.46l0.19-2.27l-1.92,1.32l-0.74-1.32l2.09-0.97l-2.09-0.99l0.74-1.32l1.92,1.32
				l-0.19-2.27h1.46l-0.19,2.25l1.93-1.3l0.72,1.32l-2.11,0.99l2.11,0.97l-0.72,1.32L241.42,132.81z"/>
			<path class="st0" d="M249.35,132.81l0.18,2.27h-1.46l0.19-2.27l-1.92,1.32l-0.74-1.32l2.09-0.97l-2.09-0.99l0.74-1.32l1.92,1.32
				l-0.19-2.27h1.46l-0.19,2.25l1.94-1.3l0.72,1.32l-2.11,0.99l2.11,0.97l-0.72,1.32L249.35,132.81z"/>
			<path class="st0" d="M257.27,132.81l0.18,2.27h-1.46l0.19-2.27l-1.92,1.32l-0.74-1.32l2.09-0.97l-2.09-0.99l0.74-1.32l1.92,1.32
				l-0.19-2.27h1.46l-0.19,2.25l1.94-1.3l0.72,1.32l-2.11,0.99l2.11,0.97l-0.72,1.32L257.27,132.81z"/>
			<path class="st0" d="M265.19,132.81l0.17,2.27h-1.46l0.19-2.27l-1.92,1.32l-0.74-1.32l2.09-0.97l-2.09-0.99l0.74-1.32l1.92,1.32
				l-0.19-2.27h1.46l-0.19,2.25l1.94-1.3l0.72,1.32l-2.11,0.99l2.11,0.97l-0.72,1.32L265.19,132.81z"/>
		</g>
		<g>
			<path class="st0" d="M266.12,173.84h-46.96c-7.2,0-13.05-5.85-13.05-13.05s5.85-13.05,13.05-13.05h46.96
				c7.2,0,13.05,5.85,13.05,13.05S273.32,173.84,266.12,173.84z M219.17,151.37c-5.19,0-9.42,4.23-9.42,9.42
				c0,5.2,4.23,9.42,9.42,9.42h46.96c5.19,0,9.42-4.23,9.42-9.42c0-5.2-4.23-9.42-9.42-9.42H219.17z"/>
		</g>
		<path class="st0" d="M254.81,173.05c-1,0-1.81-0.81-1.81-1.81V150.1c0-1,0.81-1.81,1.81-1.81s1.81,0.81,1.81,1.81v21.14
			C256.63,172.24,255.81,173.05,254.81,173.05z"/>
		<g>
			<path class="st0" d="M220.15,161.8l0.17,2.27h-1.46l0.19-2.27l-1.92,1.32l-0.74-1.32l2.09-0.97l-2.09-0.99l0.74-1.32l1.92,1.32
				l-0.19-2.27h1.46l-0.19,2.25l1.94-1.3l0.72,1.32l-2.11,0.99l2.11,0.97l-0.72,1.32L220.15,161.8z"/>
			<path class="st0" d="M228.07,161.8l0.18,2.27h-1.46l0.19-2.27l-1.92,1.32l-0.74-1.32l2.1-0.97l-2.1-0.99l0.74-1.32l1.92,1.32
				l-0.19-2.27h1.46l-0.19,2.25l1.94-1.3l0.72,1.32l-2.11,0.99l2.11,0.97l-0.72,1.32L228.07,161.8z"/>
			<path class="st0" d="M235.99,161.8l0.18,2.27h-1.46l0.19-2.27l-1.92,1.32l-0.74-1.32l2.1-0.97l-2.1-0.99l0.74-1.32l1.92,1.32
				l-0.19-2.27h1.46l-0.19,2.25l1.94-1.3l0.72,1.32l-2.11,0.99l2.11,0.97l-0.72,1.32L235.99,161.8z"/>
			<path class="st0" d="M243.91,161.8l0.18,2.27h-1.46l0.19-2.27l-1.92,1.32l-0.74-1.32l2.09-0.97l-2.09-0.99l0.74-1.32l1.92,1.32
				l-0.19-2.27h1.46l-0.19,2.25l1.93-1.3l0.72,1.32l-2.11,0.99l2.11,0.97l-0.72,1.32L243.91,161.8z"/>
		</g>
		<path class="st0" d="M260.63,166.94c-0.46,0-0.93-0.18-1.28-0.53c-0.71-0.71-0.71-1.86,0-2.57l8.74-8.74
			c0.71-0.71,1.86-0.71,2.57,0c0.71,0.71,0.71,1.86,0,2.57l-8.74,8.74C261.56,166.76,261.1,166.94,260.63,166.94z"/>
		<path class="st0" d="M269.37,166.94c-0.46,0-0.93-0.18-1.28-0.53l-8.74-8.74c-0.71-0.71-0.71-1.86,0-2.57
			c0.71-0.71,1.86-0.71,2.57,0l8.74,8.74c0.71,0.71,0.71,1.86,0,2.57C270.3,166.76,269.83,166.94,269.37,166.94z"/>
		<g>
			<path class="st0" d="M250.57,202.83h-46.95c-7.2,0-13.05-5.85-13.05-13.05s5.85-13.05,13.05-13.05h46.95
				c7.2,0,13.05,5.85,13.05,13.05S257.76,202.83,250.57,202.83z M203.61,180.36c-5.2,0-9.42,4.23-9.42,9.42
				c0,5.2,4.23,9.42,9.42,9.42h46.95c5.2,0,9.42-4.23,9.42-9.42c0-5.19-4.23-9.42-9.42-9.42H203.61z"/>
		</g>
		<path class="st0" d="M203.01,196.12c-0.48,0-0.94-0.19-1.28-0.53l-4.29-4.29c-0.71-0.71-0.71-1.86,0-2.57
			c0.71-0.71,1.86-0.71,2.57,0l3.01,3.01l6.12-6.12c0.71-0.71,1.86-0.71,2.57,0c0.71,0.71,0.71,1.86,0,2.57l-7.4,7.4
			C203.95,195.93,203.49,196.12,203.01,196.12z"/>
		<path class="st0" d="M214.92,202.29c-1,0-1.81-0.81-1.81-1.81v-21.14c0-1,0.81-1.81,1.81-1.81s1.81,0.81,1.81,1.81v21.14
			C216.73,201.47,215.92,202.29,214.92,202.29z"/>
		<g>
			<g>
				<path class="st0" d="M225.57,190.79l0.17,2.27h-1.46l0.19-2.27l-1.92,1.32l-0.74-1.32l2.09-0.97l-2.09-0.99l0.74-1.32l1.92,1.32
					l-0.19-2.27h1.46l-0.19,2.25l1.94-1.3l0.72,1.32l-2.11,0.99l2.11,0.97l-0.72,1.32L225.57,190.79z"/>
				<path class="st0" d="M233.49,190.79l0.18,2.27h-1.46l0.19-2.27l-1.92,1.32l-0.74-1.32l2.1-0.97l-2.1-0.99l0.74-1.32l1.92,1.32
					l-0.19-2.27h1.46l-0.19,2.25l1.94-1.3l0.72,1.32l-2.11,0.99l2.11,0.97l-0.72,1.32L233.49,190.79z"/>
				<path class="st0" d="M241.41,190.79l0.18,2.27h-1.46l0.19-2.27l-1.92,1.32l-0.74-1.32l2.1-0.97l-2.1-0.99l0.74-1.32l1.92,1.32
					l-0.19-2.27h1.46l-0.19,2.25l1.94-1.3l0.72,1.32l-2.11,0.99l2.11,0.97l-0.72,1.32L241.41,190.79z"/>
				<path class="st0" d="M249.33,190.79l0.18,2.27h-1.46l0.19-2.27l-1.92,1.32l-0.74-1.32l2.09-0.97l-2.09-0.99l0.74-1.32l1.92,1.32
					l-0.19-2.27h1.46l-0.19,2.25l1.93-1.3l0.72,1.32l-2.11,0.99l2.11,0.97l-0.72,1.32L249.33,190.79z"/>
			</g>
		</g>
	</g>
	<path class="st0" d="M242.65,116.65c-1.4,0-2.53-1.13-2.53-2.53V98.28c0-8.97-7.3-16.26-16.26-16.26h-3.74
		c-1.4,0-2.53-1.13-2.53-2.53c0-1.4,1.13-2.53,2.53-2.53h3.74c11.76,0,21.33,9.57,21.33,21.33v15.83
		C245.18,115.52,244.04,116.65,242.65,116.65z"/>
	<path class="st0" d="M221.96,248h-14.94c-1.4,0-2.53-1.13-2.53-2.53c0-1.4,1.13-2.53,2.53-2.53h14.94
		c9.36,0,16.98-7.62,16.98-16.98v-17.01c0-1.4,1.13-2.53,2.53-2.53c1.4,0,2.53,1.13,2.53,2.53v17.01
		C244.01,238.12,234.12,248,221.96,248z"/>
	<g>
		<path class="st0" d="M173.24,197.21c-17.72,0-32.13,14.41-32.13,32.13s14.41,32.13,32.13,32.13s32.13-14.41,32.13-32.13
			S190.96,197.21,173.24,197.21L173.24,197.21z M173.24,255.63c-14.5,0-26.29-11.79-26.29-26.29s11.79-26.29,26.29-26.29
			s26.29,11.79,26.29,26.29S187.74,255.63,173.24,255.63L173.24,255.63z M173.24,255.63"/>
		<path class="st0" d="M185.29,217.98l-16.52,16.52l-7.57-7.57c-1.14-1.14-2.99-1.14-4.13,0c-1.14,1.14-1.14,2.99,0,4.13l9.64,9.64
			c0.55,0.55,1.29,0.86,2.07,0.86c0.78,0,1.52-0.31,2.07-0.86l18.59-18.59c1.14-1.14,1.14-2.99,0-4.13
			C188.28,216.84,186.43,216.84,185.29,217.98L185.29,217.98z M185.29,217.98"/>
	</g>
	<g>
		<path class="st0" d="M176.51,106.71l-0.57,1.81v94.67c2.22,0.23,4.35,0.76,6.38,1.51V103.05c-1.12,0.54-2.29,1.02-3.5,1.39
			C177.72,104.76,176.86,105.61,176.51,106.71z"/>
		<path class="st0" d="M59.9,220.22v-96.58h22.28c4.14,0,8.03-1.61,10.96-4.54c2.93-2.93,4.54-6.82,4.54-10.96V85.86h48.5
			l-8.82-2.77c-0.04-0.63-0.06-1.24-0.06-1.82c0-0.57,0.02-1.17,0.06-1.79H94.48c-0.85,0-1.66,0.34-2.26,0.93L54.45,118.2
			c-0.6,0.6-0.93,1.41-0.93,2.26v99.77c0,8.54,6.95,15.49,15.5,15.49h78.76c-0.51-2.05-0.81-4.17-0.81-6.38H69.01
			C63.99,229.34,59.9,225.25,59.9,220.22z M91.29,90.37v17.77c0,2.44-0.95,4.73-2.67,6.45c-1.72,1.72-4.01,2.67-6.45,2.67H64.41
			L91.29,90.37z"/>
		<path class="st0" d="M113.52,186.74h-1.43c-1.76,0-3.19,1.43-3.19,3.19c0,1.76,1.43,3.19,3.19,3.19h1.43
			c1.76,0,3.19-1.43,3.19-3.19C116.71,188.17,115.28,186.74,113.52,186.74z"/>
		<path class="st0" d="M154.8,186.74h-30.97c-1.76,0-3.19,1.43-3.19,3.19c0,1.76,1.43,3.19,3.19,3.19h30.97
			c1.76,0,3.19-1.43,3.19-3.19C157.99,188.17,156.56,186.74,154.8,186.74z"/>
		<path class="st0" d="M157.99,175.36c0-1.76-1.43-3.19-3.19-3.19H81.03c-1.76,0-3.19,1.43-3.19,3.19s1.43,3.19,3.19,3.19h73.77
			C156.56,178.55,157.99,177.12,157.99,175.36z"/>
		<path class="st0" d="M81.03,163.98h73.77c1.76,0,3.19-1.43,3.19-3.19s-1.43-3.19-3.19-3.19H81.03c-1.76,0-3.19,1.43-3.19,3.19
			S79.27,163.98,81.03,163.98z"/>
		<path class="st0" d="M81.03,149.41h73.77c1.76,0,3.19-1.43,3.19-3.19c0-1.76-1.43-3.19-3.19-3.19H81.03
			c-1.76,0-3.19,1.43-3.19,3.19C77.85,147.98,79.27,149.41,81.03,149.41z"/>
	</g>
	<g>
		<path class="st0" d="M210.62,89c1.3-0.41,2.24-1.55,2.4-2.9c0.21-1.74,0.3-3.32,0.3-4.82c0-1.5-0.1-3.08-0.3-4.82
			c-0.16-1.35-1.1-2.49-2.39-2.9l-9.58-3.01c-0.29-0.78-0.61-1.55-0.95-2.31l4.64-8.9c0.63-1.21,0.49-2.67-0.35-3.74
			c-2-2.53-4.3-4.83-6.84-6.84c-1.07-0.85-2.54-0.98-3.74-0.36l-8.91,4.65c-0.75-0.35-1.53-0.66-2.31-0.95l-3.01-9.58
			c-0.41-1.3-1.55-2.24-2.9-2.39c-3.5-0.41-6.15-0.41-9.65,0c-1.35,0.16-2.49,1.1-2.9,2.39l-3.01,9.58
			c-0.79,0.29-1.56,0.61-2.31,0.95l-8.9-4.64c-1.21-0.63-2.67-0.49-3.74,0.35c-2.53,2-4.83,4.3-6.84,6.84
			c-0.85,1.07-0.99,2.53-0.36,3.74l4.64,8.9c-0.35,0.75-0.66,1.53-0.95,2.31l-9.58,3.01c-1.3,0.41-2.24,1.55-2.39,2.9
			c-0.2,1.74-0.3,3.32-0.3,4.82c0,1.5,0.1,3.08,0.3,4.82c0.16,1.35,1.1,2.49,2.39,2.9l9.58,3.01c0.29,0.78,0.61,1.55,0.95,2.31
			l-4.64,8.9c-0.63,1.21-0.49,2.67,0.35,3.74c2,2.53,4.3,4.83,6.84,6.84c1.07,0.85,2.54,0.98,3.74,0.36l8.9-4.64
			c0.75,0.34,1.52,0.66,2.31,0.95l3.01,9.58c0.41,1.3,1.55,2.24,2.9,2.4c1.75,0.21,3.33,0.3,4.83,0.3c1.5,0,3.08-0.1,4.82-0.3
			c1.35-0.16,2.49-1.1,2.9-2.39l3.01-9.58c0.78-0.29,1.55-0.61,2.31-0.95l8.9,4.64c1.21,0.63,2.67,0.49,3.74-0.35
			c2.53-2,4.83-4.3,6.84-6.84c0.85-1.07,0.99-2.53,0.36-3.74l-4.65-8.9c0.35-0.75,0.67-1.52,0.95-2.31L210.62,89z M197.28,85.94
			c-1.09,0.35-1.94,1.21-2.27,2.31c-0.47,1.56-1.09,3.07-1.85,4.47c-0.54,1.01-0.55,2.22-0.02,3.24l4.39,8.4
			c-0.82,0.91-1.69,1.78-2.59,2.59l-8.4-4.39c-1.02-0.53-2.23-0.52-3.24,0.02c-1.41,0.75-2.91,1.37-4.47,1.84
			c-1.1,0.33-1.96,1.18-2.31,2.27l-2.85,9.07c-1.26,0.08-2.38,0.08-3.64,0l-2.85-9.07c-0.35-1.09-1.21-1.94-2.31-2.27
			c-1.56-0.47-3.07-1.09-4.47-1.84c-1.01-0.54-2.22-0.55-3.24-0.02l-8.4,4.39c-0.91-0.82-1.78-1.69-2.59-2.59l4.39-8.4
			c0.53-1.01,0.52-2.23-0.02-3.24c-0.75-1.41-1.37-2.91-1.84-4.47c-0.33-1.1-1.18-1.96-2.27-2.31l-9.07-2.85
			c-0.04-0.63-0.06-1.23-0.06-1.82c0-0.59,0.02-1.19,0.06-1.82l9.07-2.85c1.09-0.35,1.94-1.21,2.27-2.31
			c0.47-1.56,1.09-3.07,1.84-4.47c0.54-1.01,0.55-2.22,0.02-3.24l-4.39-8.4c0.82-0.91,1.69-1.78,2.59-2.59l8.4,4.39
			c1.01,0.53,2.23,0.52,3.24-0.02c1.41-0.75,2.91-1.37,4.47-1.84c1.1-0.33,1.96-1.18,2.31-2.27l2.85-9.07
			c1.26-0.08,2.38-0.08,3.64,0l2.85,9.07c0.35,1.09,1.21,1.94,2.31,2.27c1.56,0.47,3.07,1.09,4.47,1.84
			c1.01,0.54,2.22,0.55,3.24,0.02l8.4-4.39c0.91,0.82,1.78,1.69,2.59,2.59l-4.39,8.4c-0.53,1.01-0.52,2.23,0.02,3.24
			c0.75,1.41,1.37,2.91,1.85,4.47c0.33,1.1,1.18,1.96,2.27,2.31l9.07,2.85c0.04,0.63,0.06,1.23,0.06,1.82
			c0,0.59-0.02,1.19-0.06,1.82L197.28,85.94z M197.28,85.94"/>
		<path class="st0" d="M171.84,63.99c-9.53,0-17.28,7.75-17.28,17.28s7.75,17.28,17.28,17.28c9.53,0,17.28-7.75,17.28-17.28
			S181.37,63.99,171.84,63.99L171.84,63.99z M171.84,91.64c-5.72,0-10.37-4.65-10.37-10.37c0-5.72,4.65-10.37,10.37-10.37
			c5.72,0,10.37,4.65,10.37,10.37C182.21,86.99,177.56,91.64,171.84,91.64L171.84,91.64z M171.84,91.64"/>
	</g>
</g>
</svg>
