<?xml version="1.0" encoding="utf-8"?>
<!-- Generator: Adobe Illustrator 24.2.3, SVG Export Plug-In . SVG Version: 6.00 Build 0)  -->
<svg version="1.1" id="Capa_1" xmlns="http://www.w3.org/2000/svg" xmlns:xlink="http://www.w3.org/1999/xlink" x="0px" y="0px"
	 viewBox="0 0 303.69 274.26" style="enable-background:new 0 0 303.69 274.26;" xml:space="preserve">
<style type="text/css">
	.st0{fill:#00D6A1;}
</style>
<g>
	<g>
		<path class="st0" d="M224.56,166.17c-2.17,0-4.58-0.75-6.81-2.98c-1.35-1.35-2.25-2.73-2.81-4.05l-0.82,0.82
			c-0.27,0.27-0.59,0.48-0.95,0.62c-0.31,0.12-7.6,2.89-12.23-1.39c-1.53-1.42-2.43-3.03-2.96-4.55c-2.86,1.32-7.06,1.75-11.02-2.01
			c-4.99-4.73-3.67-10.18-2.11-12.75c-1.32-0.54-2.73-1.43-4.14-2.84c-4.9-4.9-2.1-11.18,0.07-13.81c0.05-0.07,0.11-0.13,0.17-0.19
			l17.55-17.71c-3.61,0.57-6.51-0.3-8.64-2.6c-1.75-1.89-2.58-4.21-2.4-6.71c0.2-2.8,1.68-5.57,3.95-7.41
			c4.21-3.41,15-11.78,24.24-15.91c8.53-3.82,20.22-2.28,24.37-1.55l15.05-15.05c1.08-1.08,2.82-1.08,3.9,0s1.08,2.82,0,3.9
			l-16.08,16.08c-0.66,0.67-1.63,0.95-2.54,0.74c-0.14-0.03-13.8-2.96-22.44,0.91c-8.64,3.86-18.97,11.89-23.02,15.17
			c-1.07,0.87-1.83,2.25-1.92,3.52c-0.07,0.97,0.24,1.81,0.94,2.57c1.37,1.48,4.08,1.3,8.08-0.51c2.8-1.27,6.15-2.64,6.29-2.7
			c1.21-0.49,2.61-0.07,3.34,1.02s0.59,2.54-0.33,3.47l-26.3,26.55c-0.49,0.64-2.78,3.92-0.37,6.32c2.3,2.3,4.24,2.02,4.98,1.79
			l17.81-17.81c1.08-1.08,2.82-1.08,3.9,0c1.08,1.08,1.08,2.82,0,3.9l-21.77,21.77c-0.43,0.75-1.52,3.23,1.22,5.83
			c2.88,2.73,5.48,0.76,5.94,0.37l21.92-21.92c1.08-1.08,2.82-1.08,3.9,0c1.08,1.08,1.08,2.82,0,3.9l-19.72,19.72
			c0.03,1.06,0.31,2.99,1.89,4.44c1.55,1.43,4.61,0.87,5.98,0.46l18.24-18.24c1.08-1.08,2.82-1.08,3.9,0l0.07,0.07
			c1.08,1.08,1.08,2.82,0,3.9l-13.2,13.2c-0.15,0.71-0.25,2.55,1.96,4.76c2.3,2.3,4.61,1.11,5.25,0.71l31.91-31.91
			c1.49-1.56,5.51-6.63,5.77-10.85c0.37-5.97-0.12-15.64-0.13-15.74c-0.04-0.78,0.25-1.54,0.8-2.09l18.28-18.28
			c1.08-1.08,2.82-1.08,3.9,0s1.08,2.82,0,3.9L270,102.44c0.12,2.87,0.38,10.09,0.07,15.12c-0.44,7.12-7.05,14.08-7.33,14.38
			l-32.13,32.13c-0.1,0.1-0.21,0.19-0.32,0.28C229.1,165.23,226.98,166.17,224.56,166.17z"/>
	</g>
	<g>
		<path class="st0" d="M123.79,162.07c-2.42,0-4.54-0.94-5.74-1.82c-0.11-0.08-0.22-0.18-0.32-0.28l-32.09-32.09
			c-0.32-0.33-6.94-7.3-7.37-14.42c-0.31-5.03-0.05-12.26,0.07-15.12L61.87,81.88c-1.08-1.08-1.08-2.82,0-3.9s2.82-1.08,3.9,0
			L83.1,95.31c0.55,0.55,0.84,1.31,0.8,2.09c0,0.1-0.49,9.77-0.13,15.74c0.26,4.22,4.28,9.3,5.81,10.89l31.86,31.86
			c0.8,0.5,3.02,1.54,5.26-0.7c2.18-2.18,2.11-4,1.94-4.77l-13.19-13.19c-1.08-1.08-1.08-2.82,0-3.9l0.07-0.07
			c1.08-1.08,2.82-1.08,3.9,0l18.24,18.24c1.46,0.43,4.46,0.95,5.98-0.46c1.57-1.45,1.86-3.38,1.88-4.45l-19.72-19.72
			c-0.54-0.54-0.81-1.24-0.81-1.95s0.27-1.41,0.81-1.95c1.08-1.08,2.82-1.08,3.9,0l21.91,21.91c0.73,0.61,3.2,2.25,5.95-0.36
			c2.8-2.65,1.65-5.13,1.23-5.82l-3.56-3.56c-0.01-0.01-0.02-0.02-0.03-0.03l-18.19-18.19c-1.08-1.08-1.08-2.82,0-3.9
			s2.82-1.08,3.9,0l17.82,17.82c0.68,0.21,2.64,0.52,4.97-1.81c2.4-2.4,0.14-5.65-0.37-6.33l-26.29-26.55
			c-0.92-0.93-1.06-2.38-0.33-3.47c0.73-1.09,2.12-1.52,3.34-1.02c0.14,0.06,3.49,1.42,6.29,2.7c3.99,1.81,6.71,1.99,8.08,0.51
			c0.7-0.76,1.01-1.6,0.94-2.57c-0.09-1.27-0.84-2.65-1.92-3.52c-4.04-3.27-14.38-11.3-23.02-15.17c-8.67-3.88-22.3-0.94-22.44-0.91
			c-0.92,0.2-1.88-0.08-2.54-0.74L91.45,57.98c-1.08-1.08-1.08-2.82,0-3.9s2.82-1.08,3.9,0l12.96,12.96
			c4.14-0.73,15.84-2.27,24.37,1.55c9.23,4.13,20.02,12.5,24.24,15.91c2.27,1.84,3.75,4.61,3.95,7.41c0.18,2.5-0.65,4.82-2.4,6.71
			c-2.13,2.3-5.02,3.17-8.64,2.6l17.55,17.71c0.06,0.06,0.12,0.12,0.17,0.19c2.17,2.63,4.97,8.91,0.07,13.81
			c-1.41,1.41-2.81,2.3-4.13,2.84c1.57,2.57,2.88,8.02-2.11,12.75c-3.96,3.76-8.16,3.33-11.02,2.01c-0.52,1.52-1.43,3.13-2.96,4.55
			c-4.63,4.28-11.92,1.51-12.23,1.39c-0.35-0.14-0.68-0.35-0.95-0.62l-0.82-0.82c-0.56,1.32-1.46,2.7-2.81,4.05
			C128.37,161.32,125.96,162.07,123.79,162.07z"/>
	</g>
	<g>
		<path class="st0" d="M151.84,262.23c-1.52,0-2.76-1.24-2.76-2.76V235c-3.44-2.42-12.8-9.59-16.14-18.33
			c-3.61-9.45-5.32-23-5.88-28.39c-0.31-2.91,0.61-5.91,2.45-8.04c1.64-1.9,3.87-2.95,6.44-3.05c3.13-0.12,5.79,1.31,7.95,4.27
			l0.12-24.93c0-0.09,0-0.17,0.01-0.25c0.33-3.4,2.79-9.82,9.71-9.82c1.99,0,3.62,0.36,4.93,0.92c0.71-2.93,3.63-7.7,10.51-7.53
			c5.46,0.14,8.12,3.42,9.21,6.37c1.44-0.7,3.23-1.21,5.31-1.13c6.3,0.24,9.49,7.36,9.63,7.66c0.15,0.35,0.23,0.73,0.23,1.11v1.15
			c1.33-0.53,2.94-0.87,4.85-0.87c6.67,0,9.26,5.27,9.69,8.05c0.02,0.14,0.03,0.28,0.03,0.43V208c-0.01,0.46-0.25,10.06-4.98,15.41
			c-3.34,3.78-8.63,8.7-10.74,10.65v24.88c0,1.52-1.23,2.76-2.76,2.76c-1.52,0-2.76-1.24-2.76-2.76v-26.1
			c0-0.78,0.33-1.52,0.91-2.05c0.07-0.07,7.26-6.56,11.22-11.04c2.8-3.17,3.55-9.6,3.6-11.81v-45.06c-0.21-0.92-1.05-3.22-4.21-3.22
			c-3.08,0-4.32,1.34-4.75,2v18.65c0,1.52-1.23,2.76-2.76,2.76h-0.1c-1.52,0-2.76-1.24-2.76-2.76v-25.8
			c-0.72-1.34-2.48-3.82-4.55-3.9c-2.15-0.08-3.7,1.07-4.48,1.81v27.89c0,1.52-1.23,2.76-2.76,2.76c-1.52,0-2.76-1.24-2.76-2.76
			v-30.99c-0.09-0.95-0.67-3.86-4.46-3.96c-3.76-0.12-4.75,2.39-4.99,3.27v30.78c0,1.52-1.23,2.76-2.76,2.76
			c-1.52,0-2.76-1.24-2.76-2.76v-25.2c-0.33-0.63-1.5-2.24-4.79-2.24c-3.39,0-4.1,3.9-4.21,4.74l-0.18,37.36
			c-0.01,1.31-0.93,2.44-2.22,2.69c-1.29,0.26-2.57-0.43-3.08-1.64c-0.06-0.14-1.46-3.48-2.54-6.35c-1.54-4.11-3.33-6.15-5.35-6.07
			c-1.04,0.04-1.85,0.42-2.48,1.15c-0.83,0.96-1.28,2.47-1.13,3.85c0.54,5.17,2.17,18.16,5.55,27s15.11,16.43,15.23,16.51
			c0.79,0.51,1.27,1.38,1.27,2.32v25.94C154.6,260.99,153.36,262.23,151.84,262.23z"/>
	</g>
	<path class="st0" d="M234.23,63.98c-0.6,0-1.2-0.19-1.71-0.59c-17.33-13.69-38.18-20.93-60.32-20.93
		c-15.46,0-30.25,3.52-43.95,10.46c-1.36,0.69-3.02,0.15-3.71-1.21c-0.69-1.36-0.15-3.02,1.21-3.71
		c14.48-7.34,30.11-11.06,46.45-11.06c23.39,0,45.43,7.65,63.74,22.11c1.2,0.94,1.4,2.68,0.46,3.88
		C235.85,63.62,235.04,63.98,234.23,63.98z"/>
	<path class="st0" d="M221.68,229.68c-0.96,0-1.89-0.5-2.4-1.39c-0.75-1.32-0.29-3.01,1.03-3.76c30.39-17.3,49.27-49.75,49.27-84.68
		c0-1.52,1.24-2.76,2.76-2.76s2.76,1.24,2.76,2.76c0,36.91-19.95,71.2-52.05,89.48C222.61,229.56,222.14,229.68,221.68,229.68z"/>
	<path class="st0" d="M122.62,229.63c-0.46,0-0.93-0.12-1.36-0.36c-32.05-18.29-51.96-52.56-51.96-89.43c0-4.2,0.26-8.42,0.76-12.54
		c0.19-1.51,1.57-2.58,3.07-2.4c1.51,0.19,2.59,1.56,2.4,3.07c-0.48,3.9-0.72,7.89-0.72,11.86c0,34.89,18.84,67.32,49.18,84.63
		c1.32,0.75,1.78,2.44,1.03,3.76C124.51,229.13,123.58,229.63,122.62,229.63z"/>
	<circle class="st0" cx="122.62" cy="226.87" r="8.5"/>
	<circle class="st0" cx="72.05" cy="133" r="8.5"/>
	<circle class="st0" cx="127" cy="51.64" r="8.5"/>
	<circle class="st0" cx="230.72" cy="57.56" r="8.5"/>
	<circle class="st0" cx="218.28" cy="229.43" r="8.5"/>
	<circle class="st0" cx="272.34" cy="139.84" r="8.5"/>
</g>
</svg>
